<svg version="1.0" xmlns="http://www.w3.org/2000/svg" viewBox="0 0 624.000000 351.000000"
 preserveAspectRatio="xMidYMid meet">
<g transform="translate(0.000000,351.000000) scale(0.100000,-0.100000)"
fill="rgb(9 144 191)" stroke="none">
<path d="M4330 2701 c-138 -54 -217 -149 -244 -295 l-12 -58 -114 1 c-120 2
-179 -11 -290 -62 -63 -29 -199 -168 -233 -237 -50 -106 -59 -142 -63 -255 -4
-112 -5 -116 -48 -130 -18 -5 -18 -7 5 -22 13 -9 26 -19 29 -22 14 -16 172
-133 175 -130 8 9 115 233 115 241 0 6 -18 8 -47 3 l-46 -7 6 69 c12 148 88
263 215 325 111 55 250 51 358 -9 250 -140 261 -499 20 -658 -95 -64 -105 -65
-583 -65 l-433 0 0 -75 c0 -72 -1 -75 -29 -89 -16 -9 -31 -22 -34 -31 -4 -8
-13 -15 -22 -15 -8 0 -15 -5 -15 -10 0 -6 15 -3 33 7 30 17 90 18 972 18 l940
0 5 -34 5 -35 29 35 c15 18 48 55 72 81 24 26 44 49 44 53 0 6 -28 38 -112
130 l-37 40 -1 -37 0 -38 -294 0 c-162 0 -297 4 -300 8 -3 5 10 30 29 56 76
107 114 267 94 395 -25 168 -102 299 -229 392 -65 47 -76 68 -67 128 19 147
166 246 304 206 155 -45 228 -222 147 -359 -12 -19 -13 -19 -39 -2 l-28 18 7
-88 c4 -49 9 -90 10 -91 4 -4 169 18 178 24 5 3 2 13 -7 23 -14 16 -13 21 10
67 37 71 52 168 37 239 -31 150 -111 241 -265 303 -44 18 -195 13 -247 -8z
m281 -20 c66 -31 125 -85 159 -145 17 -28 30 -54 30 -58 0 -13 -38 -9 -43 5
-3 6 -6 1 -7 -13 -2 -25 -2 -25 -15 5 -12 26 -20 27 -16 3 0 -5 -6 -8 -14 -8
-14 0 -20 13 -15 35 1 6 -1 7 -5 3 -4 -4 -19 4 -34 18 -55 53 -100 69 -191 69
-75 0 -90 -3 -125 -26 -23 -15 -55 -42 -71 -61 -44 -50 -113 -62 -115 -19 0
11 -3 9 -9 -6 -5 -13 -11 -23 -14 -23 -10 0 10 49 37 90 78 116 172 163 317
156 61 -2 98 -10 131 -25z m-484 -370 c88 -32 159 -79 220 -145 58 -61 103
-132 103 -161 0 -8 4 -15 9 -15 5 0 9 -15 8 -34 -1 -33 -1 -33 -21 -15 -21 20
-36 24 -36 11 0 -5 -15 -8 -34 -7 -24 0 -32 -3 -29 -12 4 -9 0 -11 -11 -7 -19
7 -27 31 -22 61 3 13 1 25 -5 28 -5 4 -9 -1 -9 -9 0 -10 -21 5 -52 37 -69 70
-101 91 -176 116 -109 37 -229 24 -331 -36 -60 -35 -123 -95 -147 -138 -10
-19 -22 -35 -27 -35 -4 0 -5 -4 -2 -10 3 -5 1 -10 -4 -10 -6 0 -11 5 -11 11 0
8 -16 10 -50 6 -31 -4 -50 -2 -50 4 0 6 -7 3 -16 -5 -17 -18 -28 -21 -19 -6 3
5 8 20 10 32 11 54 62 134 129 201 90 92 177 138 306 161 55 10 216 -4 267
-23z m82 -908 c-13 -17 -13 -17 4 -4 21 17 110 16 116 0 1 -6 9 -2 17 8 7 10
14 13 14 7 0 -15 -104 -110 -143 -130 -16 -9 -58 -27 -93 -40 -63 -23 -69 -24
-486 -27 -232 -2 -435 -1 -450 1 -21 3 -27 9 -24 21 6 18 17 69 20 91 5 40 4
40 419 40 372 0 407 2 467 20 76 23 73 23 65 10 -3 -5 1 -10 9 -10 9 0 16 5
16 10 0 6 9 10 19 10 11 0 23 5 26 11 4 6 9 8 12 5 3 -3 0 -14 -8 -23z m825
-10 c11 -15 24 -36 29 -46 6 -17 5 -18 -8 -7 -12 10 -18 10 -30 0 -12 -10 -15
-10 -15 0 0 7 -8 10 -20 7 -11 -3 -22 -2 -25 3 -3 4 -20 5 -37 1 -51 -10 -481
-7 -498 4 -10 7 83 12 275 15 l290 5 3 23 c4 28 9 28 36 -5z"/>
</g>
</svg>